<?xml version="1.0" encoding="utf-8"?>
<!-- Generator: Adobe Illustrator 16.0.0, SVG Export Plug-In . SVG Version: 6.00 Build 0)  -->
<!DOCTYPE svg PUBLIC "-//W3C//DTD SVG 1.1//EN" "http://www.w3.org/Graphics/SVG/1.1/DTD/svg11.dtd">
<svg version="1.1" id="Layer_1" xmlns="http://www.w3.org/2000/svg" xmlns:xlink="http://www.w3.org/1999/xlink" x="0px" y="0px"
	 width="83.5px" height="117px" viewBox="0 -5.5 83.5 117" enable-background="new 0 -5.5 83.5 117" xml:space="preserve">
	 <a xlink:href="http://validator.w3.org/check?uri=http%3A%2F%2Fwww.jimenezfrontend.es%2F;ss=1" xlink:show="new">
<g>
	<g>
		<path fill="#8978AE" d="M13.011,3.529h4.455v4.392h4.076V3.529h4.456v13.299h-4.456v-4.453h-4.076v4.453h-4.455V3.529z"/>
		<path fill="#8978AE" d="M31.857,7.939h-3.922v-4.41h12.302v4.41h-3.924v8.889h-4.456V7.939L31.857,7.939z"/>
		<path fill="#8978AE" d="M42.19,3.529h4.646l2.857,4.673l2.855-4.673h4.648v13.299h-4.438v-6.591l-3.065,4.729h-0.076l-3.067-4.729
			v6.591h-4.36V3.529z"/>
		<path fill="#8978AE" d="M59.415,3.529h4.457v8.904h6.267v4.395H59.415V3.529z"/>
	</g>
	<path fill="#8978AE" d="M30.012,54.943h11.576v-8.958H29.21L30.012,54.943z M6.588,22.66l6.374,71.318l28.609,7.922l28.635-7.918
		l6.382-71.322H6.588z M64.743,89.441l-23.155,6.404V86.77l-0.015,0.004l-17.959-4.976l-1.256-14.045h8.801l0.652,7.287l9.765,2.631
		l0.012-0.004V63.689H21.994l-2.365-26.452h21.959v-8.747h28.609L64.743,89.441z"/>
	<path opacity="0.8" fill="#8978AE" enable-background="new    " d="M52.381,63.689H41.588v13.979l9.773-2.632L52.381,63.689z
		 M41.588,28.492v8.747h21.959l-0.785,8.748H41.588v8.957h20.375l-2.404,26.855L41.587,86.77v9.076l23.155-6.404l5.455-60.949
		H41.588L41.588,28.492z"/>
	<g opacity="0.2">
		<polygon fill="#8978AE" points="41.588,37.239 19.629,37.239 21.994,63.689 41.588,63.689 41.588,54.943 30.012,54.943 
			29.21,45.986 41.588,45.986 		"/>
		<polygon fill="#8978AE" points="41.588,77.667 41.576,77.671 31.811,75.041 31.159,67.754 22.358,67.754 23.613,81.799 
			41.574,86.771 41.588,86.77 		"/>
	</g>
</g>
</a>
</svg>
