<?xml version="1.0" encoding="utf-8"?>
<!-- Generator: Adobe Illustrator 16.0.0, SVG Export Plug-In . SVG Version: 6.00 Build 0)  -->
<!DOCTYPE svg PUBLIC "-//W3C//DTD SVG 1.1//EN" "http://www.w3.org/Graphics/SVG/1.1/DTD/svg11.dtd">
<svg version="1.1" id="Capa_1" xmlns="http://www.w3.org/2000/svg" xmlns:xlink="http://www.w3.org/1999/xlink" x="0px" y="0px"
	 width="78.333px" height="21.167px" viewBox="-2.834 0 78.333 21.167" xml:space="preserve">
<a xlink:href="http://jquery.com/" xlink:show="new">
<g id="_x23_dcdfe6ff">
	<path fill="#DCDFE6" d="M28.781,2.912c0.396,0.047,0.78-0.18,1.167-0.019c1.451-0.018,2.922,0.679,3.72,1.912
		c0.257,0.442,0.497,0.904,0.593,1.411c0.088,0.274,0.031,0.569,0.113,0.844c0.069,0.183-0.035,0.362-0.043,0.545
		c-0.092,1.119-0.557,2.155-0.884,3.218c-0.169,0.55-0.457,1.056-0.59,1.617c0.457,0.069,0.956-0.099,1.381,0.115
		c-0.237,0.635-0.36,1.303-0.527,1.958c-0.058,0.079-0.119,0.155-0.182,0.23c-2.187-0.017-4.375,0.018-6.562,0.006
		c-0.845-0.062-1.72-0.223-2.424-0.726c-0.904-0.598-1.395-1.658-1.493-2.712c0-0.509-0.011-1.018,0.008-1.525
		c0.242-1.691,0.797-3.37,1.835-4.744c0.278-0.295,0.575-0.574,0.857-0.864C26.586,3.434,27.684,3.042,28.781,2.912 M27.479,5.722
		c-0.354,0.284-0.656,0.636-0.86,1.042c-0.552,1.015-0.766,2.171-0.891,3.304c-0.015,0.666,0.12,1.388,0.594,1.886
		c0.285,0.332,0.748,0.368,1.144,0.479c0.937,0.033,1.875-0.002,2.813,0.016c0.11-0.125,0.223-0.253,0.275-0.416
		c0.329-1.304,0.737-2.587,1.067-3.891c0.033-0.435,0.017-0.872,0.011-1.308c-0.082-0.539-0.387-1.047-0.851-1.34
		C29.738,5.003,28.459,5.133,27.479,5.722z"/>
	<path fill="#DCDFE6" d="M68.354,4.054c0.992-0.001,1.985-0.005,2.979,0.002c-0.741,0.874-1.363,1.843-2.099,2.722
		c-1.153,1.544-2.313,3.086-3.469,4.63c-0.271,0.394-0.618,0.741-0.822,1.178c-0.172,0.685-0.325,1.374-0.521,2.052
		c-0.153,0.049-0.305,0.115-0.469,0.104c-0.605,0-1.211-0.003-1.817,0.001c-0.145,0.017-0.278-0.038-0.404-0.099
		c0.182-0.548,0.286-1.119,0.441-1.675c0.08-0.252,0.076-0.522,0.039-0.781c-0.248-0.812-0.464-1.631-0.707-2.443
		c-0.116-0.468-0.296-0.92-0.351-1.401c0.869-0.005,1.738,0.003,2.607-0.004c0.182,0.499,0.264,1.029,0.41,1.541
		c0.058-0.003,0.175-0.009,0.233-0.012c0.448-0.693,0.895-1.389,1.389-2.051c0.39-0.564,0.74-1.157,1.162-1.698
		C67.428,5.436,67.862,4.724,68.354,4.054z"/>
	<path fill="#DCDFE6" d="M46.922,6.193c0.741-0.535,1.634-0.82,2.538-0.898c0.802,0.003,1.623-0.078,2.398,0.179
		c0.928,0.222,1.726,1.028,1.83,1.994c0.161,0.653,0.015,1.325-0.081,1.977c-0.119,0.499-0.164,1.036-0.431,1.485
		c-1.993-0.004-3.986-0.007-5.979,0.002c-0.209,0.405-0.09,0.891,0.147,1.255c0.268,0.279,0.69,0.358,1.063,0.358
		c1.209,0.004,2.419,0.002,3.628,0.001c0.262,0.011,0.545-0.052,0.782,0.098c-0.204,0.639-0.298,1.306-0.423,1.963
		c-0.06,0.079-0.123,0.155-0.188,0.229c-1.297-0.005-2.595-0.001-3.893,0.001c-0.41,0.021-0.805-0.105-1.213-0.11
		c-0.736-0.163-1.528-0.438-1.992-1.068c-0.459-0.577-0.534-1.354-0.508-2.064c0.154-1.296,0.432-2.592,0.979-3.784
		C45.909,7.184,46.379,6.644,46.922,6.193 M48.056,7.901c-0.24,0.2-0.328,0.513-0.472,0.778c-0.081,0.156-0.039,0.438,0.179,0.433
		c1.092,0.007,2.186-0.001,3.278,0.002c0.076-0.077,0.153-0.153,0.231-0.229c0.01-0.331,0.014-0.669-0.125-0.977
		c-0.177-0.256-0.463-0.398-0.747-0.502c-0.377-0.018-0.756-0.002-1.133-0.008C48.811,7.379,48.401,7.629,48.056,7.901z"/>
	<path fill="#DCDFE6" d="M20.119,5.388c0.83-0.001,1.66-0.005,2.49,0.002c-0.182,0.703-0.289,1.43-0.499,2.123
		c-0.838-0.011-1.675,0.004-2.512-0.008C19.792,6.804,19.89,6.08,20.119,5.388z"/>
	<path fill="#DCDFE6" d="M36.708,5.396c0.655,0.01,1.311-0.008,1.966,0.007c0.059,0.026,0.177,0.076,0.236,0.102
		c-0.421,1.903-0.817,3.818-1.146,5.737c-0.073,0.344,0.048,0.686,0.196,0.991c0.147,0.15,0.36,0.232,0.56,0.295
		c0.722,0.037,1.448,0.013,2.171,0.014c0.284-0.652,0.314-1.376,0.509-2.055c0.281-1.39,0.598-2.771,0.893-4.16
		c0.078-0.321,0.064-0.698,0.334-0.931c0.599,0.006,1.198,0,1.798,0c0.128-0.01,0.252,0.029,0.37,0.082
		c-0.65,2.984-1.285,5.973-1.907,8.963c-0.019,0.125-0.136,0.201-0.202,0.301c-1.456-0.006-2.912,0.001-4.367-0.003
		c-0.652-0.09-1.379-0.12-1.898-0.58c-0.289-0.162-0.42-0.478-0.608-0.733c-0.34-0.68-0.285-1.464-0.255-2.201
		c0.298-1.783,0.731-3.539,1.076-5.312C36.467,5.712,36.562,5.538,36.708,5.396z"/>
	<path fill="#DCDFE6" d="M56.153,5.397c1.773,0.004,3.548,0.002,5.322,0c0.577,0.036,1.206,0.12,1.618,0.569
		c0.365,0.457,0.425,1.077,0.499,1.637c-1.882,0-3.765,0.006-5.647-0.003c-0.244,0.553-0.292,1.163-0.433,1.746
		c-0.405,1.755-0.727,3.529-1.103,5.291c-0.151,0.05-0.301,0.116-0.462,0.104c-0.568-0.006-1.136,0.008-1.702-0.006
		c-0.056-0.022-0.168-0.066-0.225-0.089c0.616-2.714,1.158-5.445,1.764-8.163C55.897,6.119,55.842,5.671,56.153,5.397z"/>
	<path fill="#DCDFE6" d="M19.438,8.337c0.835,0.012,1.671-0.002,2.507,0.008c-0.439,1.991-0.861,3.985-1.298,5.978
		c-0.208,1.08-0.502,2.164-1.087,3.106c-0.321,0.319-0.604,0.712-1.042,0.877c-0.796,0.342-1.673,0.231-2.514,0.248
		c-0.221-0.003-0.456,0.03-0.66-0.08c0.145-0.615,0.28-1.235,0.45-1.846c0.024-0.15,0.14-0.254,0.23-0.366
		c0.308-0.001,0.616,0.018,0.922-0.006c0.585-0.193,0.848-0.821,1.019-1.363C18.472,12.711,18.872,10.5,19.438,8.337z"/>
</g>
<g id="_x23_8476a8ff">
	<path fill="#8476A8" d="M8.412,6.99C7.947,6.14,8.052,5,8.715,4.28c-0.047,0.625-0.16,1.304,0.143,1.884
		c0.421,0.848,1.172,1.551,2.093,1.813c0.315,0.082,0.64,0.116,0.959,0.175c0.241-0.038,0.482-0.075,0.723-0.117
		c0.261-0.104,0.489-0.272,0.745-0.387c-0.162,0.458-0.616,0.739-1.025,0.957c-0.486,0.15-1.011,0.303-1.518,0.157
		C10.284,8.729,9.787,8.47,9.354,8.146C8.91,7.888,8.631,7.439,8.412,6.99z"/>
	<path fill="#8476A8" d="M5.056,6.933c0.111-0.75,0.51-1.432,1.016-1.984c-0.148,0.555-0.331,1.11-0.264,1.694
		c0.167,2.278,2.164,4.174,4.387,4.475c0.643-0.011,1.314,0.096,1.922-0.171c0.723-0.188,1.296-0.696,1.814-1.209
		c-0.238,0.565-0.594,1.084-1.046,1.5c-1.341,1.108-3.289,1.293-4.872,0.627c-1.489-0.679-2.689-2.07-2.957-3.709
		C5.038,7.748,5.038,7.34,5.056,6.933z"/>
	<path fill="#8476A8" d="M1.52,8.256c0.222-0.907,0.8-1.668,1.428-2.336C2.787,6.429,2.562,6.926,2.536,7.468
		C2.374,8.084,2.547,8.71,2.652,9.319c0.123,0.679,0.458,1.29,0.777,1.893c0.553,0.911,1.347,1.653,2.207,2.271
		c0.774,0.467,1.611,0.84,2.498,1.028c0.691,0.077,1.396,0.232,2.087,0.068c0.854-0.072,1.68-0.382,2.398-0.846
		c0.344-0.212,0.562-0.581,0.928-0.762c-0.588,1.328-1.77,2.369-3.137,2.842c-1.691,0.562-3.628,0.489-5.205-0.374
		c-1.939-0.958-3.412-2.857-3.767-5.002c0.006-0.403-0.166-0.796-0.084-1.199C1.428,8.914,1.424,8.576,1.52,8.256z"/>
</g>
</a>
</svg>
