<?xml version="1.0" encoding="utf-8"?>
<!-- Generator: Adobe Illustrator 16.0.0, SVG Export Plug-In . SVG Version: 6.00 Build 0)  -->
<!DOCTYPE svg PUBLIC "-//W3C//DTD SVG 1.1//EN" "http://www.w3.org/Graphics/SVG/1.1/DTD/svg11.dtd">
<svg version="1.1" id="Layer_1" xmlns="http://www.w3.org/2000/svg" xmlns:xlink="http://www.w3.org/1999/xlink" x="0px" y="0px"
	 width="83.5px" height="117px" viewBox="0 0 83.5 117" enable-background="new 0 0 83.5 117" xml:space="preserve">
	 <a xlink:href="http://es.wordpress.org/" xlink:show="new">
<g>
	<g>
		<path fill="#8978AE" d="M40.601,20.755c5.417-0.133,10.862,0.906,15.816,3.051c7.322,3.144,13.532,8.678,17.417,15.506
			c3.331,5.789,4.941,12.497,4.638,19.126c-0.229,5.505-1.778,10.952-4.497,15.778c-2.638,4.703-6.359,8.823-10.812,11.964
			c-4.769,3.381-10.378,5.627-16.213,6.457c-6.638,0.966-13.544,0.139-19.732-2.409c-7.623-3.112-14.102-8.798-18.091-15.864
			C6.25,69.324,4.664,63.591,4.522,57.821c-0.177-6.196,1.317-12.436,4.32-17.902c3.044-5.594,7.63-10.375,13.136-13.722
			C27.536,22.792,34.042,20.899,40.601,20.755z M38.423,22.571c-4.733,0.402-9.38,1.757-13.562,3.963
			c-5.022,2.636-9.379,6.476-12.567,11.096C9.08,42.242,7.053,47.636,6.449,53.184c-0.63,5.638,0.196,11.426,2.395,16.674
			c2.211,5.304,5.807,10.044,10.343,13.669c5.406,4.351,12.168,7.073,19.151,7.668c6.41,0.57,12.978-0.608,18.742-3.414
			c4.844-2.33,9.115-5.772,12.402-9.955c3.335-4.231,5.644-9.229,6.662-14.478c1.4-7.094,0.436-14.613-2.743-21.139
			c-3.619-7.509-10.103-13.649-17.906-16.937C50.153,23,44.227,22.071,38.423,22.571z"/>
	</g>
	<path fill="#8978AE" d="M28.248,28.705c4.988-2.259,10.587-3.174,16.06-2.707c6.917,0.563,13.591,3.461,18.687,8.059
		c-1.402-0.151-2.854,0.335-3.891,1.265c-1.215,1.067-1.916,2.659-1.89,4.254c0,1.321,0.461,2.593,1.057,3.761
		c0.871,1.717,2.06,3.258,2.921,4.979c1.474,2.831,2.122,6.114,1.539,9.258c-0.52,2.837-1.523,5.559-2.367,8.313
		c-1.004,3.28-2.008,6.561-3.016,9.84c-3.849-11.124-7.659-22.26-11.503-33.385c1.225-0.074,2.447-0.162,3.665-0.302
		c0.338-0.029,0.653-0.19,0.869-0.447c0.5-0.543,0.349-1.494-0.278-1.883c-0.306-0.202-0.692-0.187-1.046-0.167
		c-2.626,0.197-5.259,0.331-7.893,0.386c-2.929-0.015-5.853-0.22-8.776-0.396c-0.731-0.046-1.312,0.662-1.251,1.346
		c-0.008,0.542,0.42,1.058,0.977,1.135c1.172,0.156,2.352,0.25,3.533,0.327c1.646,4.416,3.3,8.827,4.944,13.244
		c-2.322,6.8-4.633,13.607-6.968,20.403c-3.857-11.217-7.723-22.431-11.577-33.647c1.236-0.073,2.473-0.159,3.702-0.308
		c0.658-0.059,1.18-0.682,1.123-1.321c-0.022-0.652-0.618-1.248-1.304-1.179c-3.532,0.227-7.073,0.468-10.615,0.363
		C18.2,35.053,22.857,31.119,28.248,28.705z"/>
	<path fill="#8978AE" d="M67.784,54.567c1.466-4.019,2.146-8.366,1.53-12.612c3.739,6.48,4.82,14.324,3.205,21.575
		c-1.142,5.154-3.681,9.998-7.268,13.935c-2.244,2.479-4.905,4.592-7.83,6.258c2.131-6.078,4.298-12.145,6.44-18.22
		C65.174,61.858,66.407,58.188,67.784,54.567z"/>
	<path fill="#8978AE" d="M10.091,61.338c-0.852-5.782-0.018-11.799,2.447-17.127C17.583,57.748,22.656,71.275,27.7,84.813
		c-4.55-2.139-8.553-5.366-11.583-9.31C12.933,71.376,10.831,66.458,10.091,61.338z"/>
	<path fill="#8978AE" d="M42.061,59.535c3.035,8.09,6.052,16.186,9.076,24.278c0.308,0.774,0.55,1.576,0.92,2.326
		c-6.248,2.159-13.187,2.324-19.541,0.49C35.698,77.599,38.88,68.568,42.061,59.535z"/>
</g>
</a>
</svg>
