<?xml version="1.0" encoding="utf-8"?>
<!-- Generator: Adobe Illustrator 16.0.0, SVG Export Plug-In . SVG Version: 6.00 Build 0)  -->
<!DOCTYPE svg PUBLIC "-//W3C//DTD SVG 1.1//EN" "http://www.w3.org/Graphics/SVG/1.1/DTD/svg11.dtd">
<svg version="1.1" id="Capa_1" xmlns="http://www.w3.org/2000/svg" xmlns:xlink="http://www.w3.org/1999/xlink" x="0px" y="0px"
	 width="85.5px" height="114px" viewBox="0 0 85.5 114" xml:space="preserve">
<a xlink:href="http://www.w3schools.com/css3/" xlink:show="new">
<g id="_x23_6224fbff">
	<path fill="#8978AE" d="M21.964,7.918h10.87c0.056,1.501,0.034,3.002,0.032,4.503c-2.08,0.064-4.162-0.016-6.242,0.033
		c-0.046,1.499-0.053,3,0.004,4.5c2.079,0.052,4.16-0.029,6.239,0.033c0.005,1.407,0.004,2.812-0.001,4.219
		c-1.363,0.048-2.727,0.012-4.089,0.02c-2.267-0.011-4.534,0.022-6.801-0.012c-0.022-0.616-0.039-1.234-0.033-1.852
		C21.965,15.548,21.924,11.733,21.964,7.918z"/>
	<path fill="#8978AE" d="M37.298,7.918h10.884c-0.008,1.557,0.019,3.116-0.005,4.672c-1.152,0.076-2.306,0.015-3.458,0.047
		c0.667,1.071,1.522,2.005,2.28,3.012c0.329,0.421,0.696,0.817,0.972,1.277c0.227,0.367,0.223,0.813,0.23,1.229
		c-0.009,1.018-0.014,2.036-0.019,3.054c-1.988,0.044-3.975,0.003-5.963,0.018c-1.54-0.015-3.08,0.029-4.619-0.023
		c-0.003-1.405-0.003-2.812,0-4.217c1.151-0.046,2.304,0.01,3.455-0.046c-0.323-0.556-0.677-1.094-1.061-1.61
		c-0.628-0.841-1.203-1.722-1.829-2.564c-0.241-0.333-0.498-0.656-0.687-1.022c-0.208-0.396-0.194-0.857-0.201-1.292
		C37.286,9.609,37.3,8.764,37.298,7.918z"/>
	<path fill="#8978AE" d="M52.432,7.918h10.81c-0.008,1.583,0.035,3.166-0.02,4.749c-1.119,0.004-2.238-0.042-3.355,0.032
		c0.623,0.974,1.387,1.847,2.091,2.763c0.366,0.471,0.784,0.905,1.091,1.42c0.227,0.383,0.203,0.848,0.213,1.278
		c-0.014,1.018-0.012,2.038-0.027,3.057c-3.499,0.019-6.997,0.019-10.495,0c-0.021-1.412-0.02-2.825-0.001-4.238
		c1.128-0.029,2.258,0.021,3.387-0.039c-0.515-0.973-1.216-1.825-1.834-2.731c-0.447-0.656-0.932-1.286-1.394-1.932
		c-0.272-0.375-0.475-0.814-0.484-1.287C52.37,9.967,52.428,8.942,52.432,7.918z"/>
	<path fill="#8978AE" d="M7.83,26.453c0.373-0.031,0.747-0.049,1.12-0.056c22.533,0.001,45.066,0,67.601,0
		c0.372,0.008,0.743,0.026,1.114,0.056c-0.201,0.214-0.091,0.524,0.048,0.739c-0.093,0.538-0.161,1.081-0.203,1.625
		c-0.18,2.43-0.406,4.856-0.602,7.285c-0.428,4.442-0.804,8.888-1.163,13.336c-0.318,3.61-0.665,7.217-0.979,10.827
		c-0.342,4.421-0.756,8.835-1.151,13.251c-0.216,2.655-0.429,5.312-0.687,7.963c-0.347,3.796-0.669,7.594-0.984,11.392
		c-0.167,1.7-0.271,3.404-0.491,5.099c-0.611,0.205-1.226,0.392-1.85,0.551c-1.249,0.325-2.474,0.732-3.72,1.07
		c-0.864,0.238-1.728,0.478-2.583,0.744c-1.335,0.415-2.696,0.737-4.03,1.159c-1.37,0.438-2.77,0.767-4.144,1.185
		c-1.573,0.481-3.171,0.874-4.739,1.37c-1.438,0.458-2.905,0.803-4.345,1.25c-0.831,0.242-1.653,0.512-2.494,0.713
		c-0.468,0.119-0.958,0.08-1.421-0.041c-0.874-0.223-1.735-0.495-2.602-0.745c-1.477-0.454-2.988-0.788-4.463-1.246
		c-0.829-0.255-1.667-0.478-2.507-0.693c-1.421-0.367-2.813-0.842-4.237-1.201c-1.574-0.396-3.118-0.912-4.694-1.305
		c-1.5-0.375-2.965-0.874-4.463-1.253c-1.332-0.333-2.633-0.78-3.968-1.101c-0.524-0.131-1.041-0.29-1.556-0.454
		c-0.13-0.811-0.184-1.628-0.221-2.446c-0.25-3.441-0.552-6.88-0.839-10.319c-0.372-4.109-0.636-8.228-1.001-12.337
		c-0.631-6.911-1.09-13.837-1.728-20.748c-0.27-3.566-0.543-7.132-0.859-10.694c-0.168-2.345-0.429-4.682-0.581-7.028
		c-0.081-1.351-0.217-2.698-0.326-4.047c-0.087-1.012-0.12-2.031-0.31-3.03C7.92,27.063,8.055,26.709,7.83,26.453 M42.879,33.083
		c-0.084,0.434-0.143,0.873-0.136,1.315c0.038,2.091-0.008,4.182,0.031,6.272c0.022,0.325-0.055,0.646-0.264,0.898
		c-0.762-0.022-1.525-0.048-2.289-0.037c-5.19,0.002-10.38,0.001-15.57,0.001c-1.481,0.004-2.962-0.016-4.444,0.036
		c-0.029,0.757,0.144,1.499,0.242,2.244c0.132,0.958,0.277,1.915,0.419,2.872c0.174,1.186,0.255,2.383,0.483,3.561
		c1.097,0.112,2.2,0.04,3.299,0.055c5.146-0.001,10.292,0.004,15.437-0.009c0.587-0.016,1.175,0.004,1.758,0.083
		c-0.56,0.384-1.195,0.633-1.826,0.877c-3.386,1.5-6.8,2.935-10.182,4.443c-2.08,0.877-4.145,1.785-6.208,2.7
		c-0.636,0.256-1.275,0.503-1.888,0.812c0.096,1.114,0.335,2.208,0.468,3.318c0.241,1.666,0.413,3.343,0.72,4.998
		c6.644,0.021,13.288,0.015,19.933,0.004c-0.198,0.835-0.093,1.694-0.105,2.542c-0.005,2.839,0,5.679-0.002,8.518
		c-0.012,0.795-0.04,1.595,0.09,2.383c-0.532,0.087-1.078,0.062-1.602-0.061c-1.64-0.383-3.254-0.863-4.894-1.239
		c-1.175-0.269-2.339-0.578-3.499-0.905c-0.224-1.208-0.302-2.436-0.475-3.65c-0.148-1.002-0.193-2.02-0.413-3.01
		c-2.039,0.009-4.078,0.004-6.115,0.006c-0.85-0.001-1.703-0.048-2.548,0.065c0.13,1.38,0.257,2.759,0.341,4.142
		c0.205,2.44,0.404,4.883,0.635,7.32c0.068,0.759,0.116,1.519,0.229,2.272c1.711,0.58,3.488,0.93,5.214,1.461
		c1.407,0.444,2.852,0.756,4.265,1.177c1.689,0.522,3.415,0.911,5.106,1.426c0.932,0.286,1.882,0.504,2.819,0.772
		c0.327,0.088,0.654,0.194,0.995,0.222c-0.205,0.246-0.127,0.616-0.161,0.917c0.042,2.541-0.015,5.08,0.027,7.62
		c1.621-0.228,3.141-0.874,4.718-1.284c1.087-0.273,2.167-0.58,3.245-0.889c0.645-0.203,1.285-0.426,1.945-0.576
		c0.833-0.198,1.636-0.504,2.46-0.729c3.054-0.794,6.055-1.777,9.1-2.603c0.691-0.183,1.396-0.327,2.056-0.605
		c0.197-0.101,0.463-0.182,0.5-0.435c0.202-0.808,0.133-1.651,0.202-2.475c0.178-2.193,0.411-4.383,0.59-6.576
		c0.245-1.741,0.275-3.505,0.485-5.252c0.086-0.708,0.083-1.423,0.132-2.134c0.208-2.028,0.405-4.056,0.551-6.09
		c0.292-3.063,0.606-6.125,0.79-9.198c0.17-1.365,0.194-2.744,0.402-4.104c0.083-0.659,0.089-1.323,0.147-1.982
		c0.11-1.179,0.27-2.353,0.334-3.534c0.11-1.898,0.318-3.789,0.449-5.686c0.126-0.971,0.215-1.947,0.262-2.926
		c0.267-2.587,0.472-5.179,0.729-7.768c0.035-0.5,0.099-1.018-0.056-1.505c-0.582-0.156-1.19-0.07-1.783-0.079
		C60.98,33.085,51.93,33.062,42.879,33.083z"/>
</g>
<g id="_x23_9babbeff">
	<path fill="#9BABBE" d="M7.75,26.459l0.08-0.007c0.225,0.257,0.09,0.611-0.059,0.869L7.75,27.255V26.459z"/>
</g>
<g id="_x23_9caabdff">
	<path fill="#9CAABD" d="M77.665,26.453l0.085,0.005v0.668l-0.037,0.065C77.574,26.977,77.464,26.667,77.665,26.453z"/>
</g>
<g id="_x23_8b77a9ff">
	<path fill="#A695C0" d="M42.879,33.083c9.05-0.02,18.101,0.003,27.151-0.009c0.593,0.008,1.201-0.077,1.783,0.079
		c0.154,0.487,0.09,1.006,0.056,1.505c-0.257,2.588-0.462,5.181-0.729,7.768c-0.047,0.979-0.136,1.955-0.262,2.926
		c-0.13,1.896-0.338,3.788-0.449,5.686c-0.064,1.182-0.224,2.355-0.334,3.534c-0.059,0.659-0.065,1.323-0.147,1.982
		c-0.208,1.36-0.232,2.739-0.402,4.104c-0.184,3.073-0.498,6.135-0.79,9.198c-0.146,2.034-0.344,4.062-0.551,6.09
		c-0.049,0.711-0.045,1.426-0.132,2.134c-0.21,1.747-0.241,3.511-0.485,5.252c-0.179,2.193-0.412,4.383-0.59,6.576
		c-0.069,0.823,0,1.667-0.202,2.475c-0.037,0.253-0.303,0.334-0.5,0.435c-0.66,0.278-1.365,0.423-2.056,0.605
		c-3.045,0.825-6.046,1.809-9.1,2.603c-0.825,0.226-1.627,0.531-2.46,0.729c-0.66,0.15-1.3,0.373-1.945,0.576
		c-1.078,0.309-2.158,0.615-3.245,0.889c-1.577,0.41-3.097,1.057-4.718,1.284c-0.042-2.54,0.015-5.079-0.027-7.62
		c0.034-0.301-0.044-0.671,0.161-0.917c1.915-0.42,3.745-1.143,5.628-1.678c0.78-0.224,1.552-0.473,2.322-0.728
		c1.045-0.349,2.113-0.625,3.16-0.97c2.18-0.74,4.416-1.308,6.581-2.096c0.083-0.64,0.152-1.282,0.193-1.927
		c0.085-1.347,0.237-2.687,0.357-4.031c0.191-1.933,0.345-3.868,0.532-5.801c0.218-2.788,0.419-5.578,0.71-8.36
		c0.164-1.549,0.241-3.105,0.445-4.649c0.113-1,0.139-1.229,0.162-1.336s0.334-0.729-0.047-0.831c-1-0.177-2.02-0.093-3.03-0.098
		c-5.197-0.002-10.393,0.002-15.589-0.013c6.738-2.75,13.468-5.52,20.211-8.256c0.081-1.403,0.016-2.81,0.035-4.213
		c-0.013-1.469,0.024-2.937-0.015-4.406c-0.926-0.046-1.853-0.042-2.779-0.031c-5.545-0.002-11.091,0.001-16.635-0.002
		c-0.878-0.009-1.757,0.024-2.635,0.028c0.209-0.253,0.286-0.574,0.264-0.898c-0.039-2.09,0.007-4.181-0.031-6.272
		C42.737,33.956,42.795,33.517,42.879,33.083z"/>
	<path fill="#A695C0" d="M42.863,67.525c3.521,0.018,7.042-0.015,10.564,0.015c-0.02,0.632-0.05,1.266-0.124,1.896
		c-0.333,2.892-0.913,8.685-0.913,8.685s0,0-0.292,0.795c-0.636,0.191-1.263,0.412-1.895,0.614
		c-1.135,0.274-2.293,0.443-3.438,0.674c-1.308,0.246-2.605,0.547-3.92,0.765c-0.13-0.788-0.103-1.588-0.09-2.383
		c0.002-2.839-0.003-5.679,0.002-8.518C42.77,69.219,42.665,68.36,42.863,67.525z"/>
</g>
</a>
</svg>
